<?xml version="1.0" encoding="UTF-8"?>
<svg version="1.1" xmlns="http://www.w3.org/2000/svg" width="3418" height="626">
<path d="M0 0 C1.69087967 -0.00534021 3.38175457 -0.01241429 5.07262063 -0.02104706 C9.66841841 -0.03950644 14.26389029 -0.03342772 18.85970068 -0.02289402 C23.83601953 -0.01585394 28.81227462 -0.03193629 33.78857422 -0.04489136 C43.51830798 -0.06645772 53.24792444 -0.06642323 62.97767422 -0.05826581 C70.89233636 -0.05194773 78.80696448 -0.05311938 86.72162628 -0.05953789 C88.41592368 -0.06089037 88.41592368 -0.06089037 90.14444931 -0.06227018 C92.43963288 -0.06412152 94.73481645 -0.06598408 97.03 -0.06785773 C118.52048722 -0.08441103 140.01090867 -0.07573855 161.50139192 -0.05887216 C181.12502277 -0.04418259 200.74850041 -0.05879757 220.37211153 -0.08764232 C240.56269936 -0.11709748 260.75321664 -0.12799046 280.94382501 -0.11846012 C283.23145309 -0.11743766 285.51908118 -0.11644304 287.80670929 -0.11547661 C289.49468249 -0.11476202 289.49468249 -0.11476202 291.21675615 -0.114033 C299.11144794 -0.11187667 307.00607234 -0.12163139 314.90074921 -0.13624763 C324.53710336 -0.15384077 334.17326242 -0.15355419 343.80960914 -0.13089598 C348.71764411 -0.11981606 353.62533628 -0.11644791 358.53335571 -0.13519669 C384.99090845 -0.22866371 407.55019882 1.26020341 431.53179932 13.5146637 C432.17761963 13.8436969 432.82343994 14.1727301 433.48883057 14.51173401 C441.97415049 18.91689751 449.36423801 24.19408157 456.53179932 30.5146637 C457.43543213 31.27392151 458.33906494 32.03317932 459.27008057 32.81544495 C478.90711632 49.78606566 492.10471073 73.53047443 498.53179932 98.5146637 C498.70668306 99.17060373 498.8815668 99.82654376 499.06175005 100.50236076 C500.9691728 108.66255079 500.81676888 116.84156268 500.79922485 125.16799927 C500.80296555 126.85568425 500.80756874 128.54336751 500.8129555 130.23104805 C500.82514927 134.8502994 500.82492931 139.46947813 500.82256675 144.0887419 C500.82215766 149.07804256 500.83320661 154.06732023 500.84268188 159.05661011 C500.85927357 168.82536841 500.86479063 178.59410258 500.86590664 188.3628738 C500.8668581 196.30728737 500.87097326 204.25169299 500.87730789 212.19610405 C500.89491622 234.73929697 500.90414754 257.28247088 500.90264694 279.82567073 C500.90252708 281.64749251 500.90252708 281.64749251 500.90240479 283.50611877 C500.90232302 284.72215654 500.90224126 285.9381943 500.90215702 287.1910817 C500.9013445 306.88896686 500.92047471 326.58677549 500.94868152 346.28463853 C500.97744149 366.52921481 500.99122006 386.7737538 500.98949397 407.01835102 C500.98883108 418.37645923 500.99427857 429.73448722 501.01585007 441.09257698 C501.03410296 450.76504912 501.0383756 460.4374047 501.02483122 470.10988665 C501.01832197 475.03961748 501.01811011 479.96912495 501.03553772 484.89883423 C501.05136458 489.42251118 501.0483077 493.94578946 501.03096946 498.46945726 C501.02792054 500.09529307 501.03145118 501.72115936 501.04268961 503.34695918 C501.13832252 518.17848297 498.54658605 531.95390105 492.78179932 545.7021637 C492.4367334 546.53892639 492.09166748 547.37568909 491.73614502 548.23780823 C477.88357126 581.03743235 451.53433992 605.34644465 418.84039307 618.90919495 C407.4251693 623.35955899 394.80733974 626.63081739 382.53716755 626.64888477 C381.512167 626.65241312 381.512167 626.65241312 380.46645936 626.65601274 C378.17786453 626.66266696 375.88932694 626.6622456 373.60072327 626.66183472 C371.94266588 626.6651356 370.28460929 626.66886164 368.62655371 626.6729762 C364.07055444 626.68297928 359.51456833 626.68671028 354.95855963 626.68936551 C350.04413967 626.69327372 345.12973009 626.70285187 340.21531677 626.71157837 C328.34517116 626.73133075 316.47502471 626.74140857 304.60486677 626.75030616 C299.01018963 626.75469208 293.41551342 626.76005819 287.82083702 626.76529503 C269.2133151 626.78230798 250.60579377 626.79680022 231.99826527 626.80404377 C227.17065747 626.80595357 222.34304967 626.80787391 217.51544189 626.80982971 C215.7156947 626.81055532 215.7156947 626.81055532 213.87958898 626.81129559 C194.46086461 626.81958862 175.04220199 626.84491295 155.62350456 626.87741039 C135.67059267 626.91052851 115.7177121 626.92849692 95.76477259 626.93168801 C84.56862 626.93384897 73.37255739 626.94253669 62.17643166 626.96814919 C52.63714139 626.98992137 43.09796295 626.99787474 33.55865065 626.9881824 C28.69755304 626.98365621 23.83668585 626.98542525 18.97562027 627.00494385 C14.51213173 627.02270997 10.04903939 627.02147028 5.58554586 627.00604656 C3.9837778 627.00369066 2.3819813 627.00788714 0.78025637 627.01987521 C-14.4343292 627.12655446 -29.58125175 624.85066231 -43.65570068 618.8271637 C-44.4761084 618.4861261 -45.29651611 618.1450885 -46.14178467 617.79371643 C-58.88159554 612.35811313 -70.0983 605.75388985 -80.46820068 596.5146637 C-81.29577881 595.81856995 -82.12335693 595.1224762 -82.97601318 594.4052887 C-106.04395522 574.59144507 -121.58564906 545.68808471 -125.46820068 515.5146637 C-125.75214443 510.00308699 -125.74746138 504.49915682 -125.73562622 498.98231506 C-125.73936804 497.31994118 -125.74397168 495.65756905 -125.74935687 493.99519968 C-125.76153687 489.45047798 -125.76133231 484.90583018 -125.75896811 480.36109591 C-125.75855867 475.45016641 -125.76961136 470.53926021 -125.77908325 465.62834167 C-125.79566757 456.01479334 -125.80119167 446.40126955 -125.80230801 436.7877081 C-125.80325985 428.96824026 -125.80737695 421.14878048 -125.81370926 413.32931519 C-125.83131589 391.13418685 -125.84054922 368.93907781 -125.83904831 346.74394244 C-125.8389684 345.54840741 -125.83888849 344.35287238 -125.83880615 343.12110901 C-125.83872439 341.92410506 -125.83864263 340.7271011 -125.83855839 339.4938243 C-125.83774601 320.10774657 -125.85687316 300.72174663 -125.88508289 281.33569139 C-125.91385468 261.40521716 -125.92762077 241.47478081 -125.92589533 221.5442853 C-125.92523284 210.36498001 -125.93066316 199.18575624 -125.95225143 188.00646973 C-125.97051998 178.48559334 -125.97476426 168.96483542 -125.96123259 159.44394904 C-125.95473105 154.59294753 -125.95448309 149.7421729 -125.97193909 144.89119339 C-125.98780078 140.43714908 -125.98467448 135.98350907 -125.96737082 131.52947384 C-125.96432942 129.93122296 -125.96782323 128.3329409 -125.97909097 126.73472685 C-126.20016799 93.10894114 -112.37743286 62.76685086 -89.46820068 38.5146637 C-88.78241943 37.76442932 -88.09663818 37.01419495 -87.39007568 36.2412262 C-64.94148805 12.5454948 -32.24075234 -0.18096223 0 0 Z " fill="#0E7ED1" transform="translate(125.46820068359375,-0.5146636962890625)"/>
<path d="M0 0 C157.92749466 0 157.92749466 0 178.5625 5.625 C179.50029297 5.87660889 180.43808594 6.12821777 181.40429688 6.38745117 C219.5090188 17.11159198 251.08280689 41.65357685 270.8046875 75.9609375 C297.22432876 123.5910423 299.57609943 185.10074498 285.21386719 236.83154297 C278.406637 259.85791621 267.97840259 281.32735332 251.15625 298.73828125 C248.95216078 300.97486494 248.95216078 300.97486494 247.03515625 303.5234375 C243.32160365 308.04242473 238.59028266 311.41233171 234 315 C233.1646875 315.66257812 232.329375 316.32515625 231.46875 317.0078125 C168.03133086 365.36905487 69.32895414 349 0 349 C0 233.83 0 118.66 0 0 Z M72 62 C72 135.92 72 209.84 72 286 C139.04530499 289.05083083 139.04530499 289.05083083 195.17578125 259.91796875 C218.3595971 235.65374206 221.71037398 198.92720654 221.25 167.125 C220.53264064 140.61139814 215.34920468 114.50982898 199 93 C198.25556641 92.01 198.25556641 92.01 197.49609375 91 C183.88646933 74.20933084 162.75993558 66.31150096 142 63 C118.78009655 60.67800965 95.33571416 62 72 62 Z " fill="#FFFFFF" transform="translate(2297,136)"/>
<path d="M0 0 C2.03448866 -0.00378721 4.06897473 -0.00929056 6.10345459 -0.01637268 C11.607601 -0.03029201 17.11143357 -0.01918214 22.61556244 -0.00266147 C28.38710248 0.01122849 34.15862504 0.00472446 39.93017578 0.00120544 C49.62081943 -0.00149355 59.311339 0.0119523 69.00195312 0.03515625 C80.1912224 0.06176395 91.38028428 0.06351187 102.56957436 0.05176789 C113.35189074 0.04097296 124.13413241 0.04719065 134.91644287 0.06132317 C139.4967425 0.06706807 144.07698719 0.06701205 148.6572876 0.06225777 C154.05496275 0.05747069 159.45241202 0.06766131 164.85004425 0.08921242 C166.82606495 0.0947569 168.80210745 0.09526718 170.77812958 0.09025955 C184.70149441 0.05941087 196.47506829 0.10705891 206.9296875 10.50170898 C212.3760238 17.31254496 215.17470352 23.0986184 215.19711304 31.91387939 C215.20164415 32.6509244 215.20617526 33.38796941 215.21084368 34.14734912 C215.2234839 36.61221286 215.22186756 39.07685552 215.22021484 41.54174805 C215.22620041 43.31111434 215.23300602 45.08047801 215.24057007 46.84983826 C215.2582363 51.65372624 215.26292577 56.45754297 215.26420164 61.2614603 C215.26562366 64.26451164 215.26989428 67.26754489 215.27519608 70.27059174 C215.29369976 80.75242767 215.30186643 91.23421273 215.30029297 101.71606445 C215.29909209 111.47780196 215.32018299 121.23931817 215.3517803 131.00099969 C215.37795925 139.38844345 215.38865955 147.77581503 215.38738215 156.16329932 C215.38687291 161.16977959 215.39253483 166.17606327 215.41373825 171.18250275 C215.43314739 175.89397358 215.4332268 180.60506088 215.41870499 185.31654549 C215.41661898 187.04143651 215.42130537 188.7663517 215.4334259 190.4912014 C215.54255802 207.10356404 215.54255802 207.10356404 210.9296875 214.50170898 C210.48367188 215.29963867 210.03765625 216.09756836 209.578125 216.91967773 C204.14716752 224.46637632 196.86608944 228.33416466 187.9296875 230.50170898 C185.03622205 230.77238949 182.16335286 230.78063713 179.25871277 230.76913452 C177.98625646 230.77593119 177.98625646 230.77593119 176.68809396 230.78286517 C173.85865693 230.79547874 171.02941313 230.79389077 168.19995117 230.79223633 C166.16590631 230.79822346 164.13186371 230.80502944 162.0978241 230.81259155 C156.581202 230.83023958 151.06464197 230.83494643 145.54799438 230.83622313 C142.09901457 230.83764592 138.65005049 230.84191796 135.2010746 230.84721756 C123.16195297 230.86571366 111.1228756 230.87388867 99.08374023 230.87231445 C87.87236189 230.87111308 76.66117607 230.89221588 65.44984645 230.92380178 C55.81480004 230.94997673 46.17981646 230.96068124 36.54473478 230.95940363 C30.7943487 230.95889438 25.04413376 230.96455784 19.29378319 230.98575974 C13.88381839 231.00516259 8.47418766 231.0052524 3.06421089 230.99072647 C1.08334234 230.98863986 -0.89754723 230.99333043 -2.87837982 231.00544739 C-17.21395295 231.08743153 -27.12499558 230.19382968 -37.9375 219.87280273 C-40.81633898 216.67233522 -42.63389586 213.53772747 -44.0703125 209.50170898 C-44.40962107 208.62214161 -44.74892963 207.74257423 -45.09852028 206.8363533 C-46.18397172 203.11169448 -46.3276371 200.00569726 -46.33773804 196.12786865 C-46.34226915 195.40700899 -46.34680026 194.68614933 -46.35146868 193.94344544 C-46.36408126 191.53929798 -46.36249436 189.13537796 -46.36083984 186.73120117 C-46.36682713 185.0027182 -46.37363313 183.27423791 -46.38119507 181.54576111 C-46.39884352 176.85756362 -46.40355001 172.16943916 -46.40482664 167.48121166 C-46.40624963 164.54933859 -46.41052208 161.61748401 -46.41582108 158.68561554 C-46.43431866 148.44900842 -46.44249217 138.21245335 -46.44091797 127.97583008 C-46.43971716 118.44755264 -46.4608083 108.91950193 -46.4924053 99.39128184 C-46.51859673 91.19997876 -46.52928404 83.0087496 -46.52800715 74.81740499 C-46.52749829 69.92995432 -46.53313913 65.04270513 -46.55436325 60.15529633 C-46.57379357 55.55543174 -46.57383745 50.95595982 -46.55932999 46.35608101 C-46.55724661 44.67353552 -46.56191453 42.99096515 -46.5740509 41.30846214 C-46.65678876 29.03760443 -45.56377859 19.40861006 -36.78125 10.18139648 C-25.95213269 -0.44992873 -14.30672144 -0.07591518 0 0 Z " fill="#DDE9F5" transform="translate(123.0703125,89.498291015625)"/>
<path d="M0 0 C77.22 0 154.44 0 234 0 C234 19.8 234 39.6 234 60 C180.54 60 127.08 60 72 60 C72 87.39 72 114.78 72 143 C121.5 143 171 143 222 143 C222 162.47 222 181.94 222 202 C172.5 202 123 202 72 202 C72 230.38 72 258.76 72 288 C125.46 288 178.92 288 234 288 C234 308.13 234 328.26 234 349 C156.78 349 79.56 349 0 349 C0 233.83 0 118.66 0 0 Z " fill="#FFFFFF" transform="translate(817,136)"/>
<path d="M0 0 C0.86328836 -0.00583219 1.72657672 -0.01166439 2.61602533 -0.01767331 C4.03939799 -0.01200433 4.03939799 -0.01200433 5.49152565 -0.00622082 C6.49919853 -0.01004636 7.50687141 -0.01387191 8.54507983 -0.01781338 C11.93756927 -0.02817103 15.32989034 -0.02414596 18.72239113 -0.02018261 C21.14818924 -0.02452757 23.57398598 -0.02970999 25.99978065 -0.03567028 C31.91465606 -0.04769945 37.82948936 -0.05020877 43.74437235 -0.04787002 C48.5516625 -0.04608848 53.35893885 -0.04783297 58.16622734 -0.05209446 C58.84989148 -0.05268965 59.53355562 -0.05328484 60.23793686 -0.05389806 C61.62672261 -0.05510979 63.01550835 -0.05632393 64.40429409 -0.05754044 C77.43556831 -0.06842291 90.46681668 -0.06625027 103.49809237 -0.06015559 C115.42206449 -0.05498701 127.3459549 -0.06623905 139.26991086 -0.08525381 C151.50920203 -0.10462199 163.74845454 -0.11288993 175.98776114 -0.10913056 C182.86086313 -0.1072168 189.73389559 -0.10972289 196.60698509 -0.1238451 C203.06986985 -0.13698983 209.53263185 -0.13451268 215.99551773 -0.12143421 C218.37033009 -0.11906113 220.74515386 -0.12182915 223.11995316 -0.13005733 C226.35655163 -0.14046451 229.59259407 -0.13247233 232.82917213 -0.11974621 C233.7736258 -0.12712049 234.71807946 -0.13449478 235.69115293 -0.14209253 C241.71535674 -0.09210578 245.21089723 0.64909002 249.57644367 5.06369019 C251.17075366 7.94817543 251.16206615 10.01595894 251.16155434 13.30704212 C251.16856865 14.54771946 251.17558296 15.7883968 251.18280983 17.06667042 C251.17538223 18.43892545 251.16765109 19.81117888 251.15964699 21.18343067 C251.16207541 22.63077525 251.16579523 24.07811816 251.17070961 25.52545643 C251.1801179 29.45540582 251.17069243 33.38510611 251.15737748 37.31503606 C251.14605767 41.43040359 251.15017107 45.54575895 251.1521244 49.66113758 C251.15300751 56.575511 251.14192603 63.48978641 251.12351418 70.4041338 C251.10237138 78.38958589 251.09883125 86.37489414 251.10507613 94.36036855 C251.11077964 102.04798228 251.10511089 109.73554552 251.09390259 117.42315197 C251.08926709 120.69132073 251.08837824 123.95945851 251.09048843 127.22762966 C251.09237805 131.08130655 251.08421587 134.93483798 251.06842804 138.78848171 C251.06420031 140.19975145 251.06332442 141.61103599 251.06611824 143.0223093 C251.08816431 156.15532142 251.08816431 156.15532142 248.78733253 162.25447559 C248.51534035 162.97635059 248.24334816 163.69822559 247.96311378 164.44197559 C243.59234148 173.61861971 237.01775139 178.34929839 227.78733253 182.25447559 C224.0146408 183.5120395 220.48985846 183.40255507 216.559412 183.40164661 C215.71044194 183.4053233 214.86147188 183.40899999 213.98677546 183.41278809 C211.13114454 183.42383455 208.27554999 183.42767044 205.41990089 183.43147755 C203.37659527 183.43774158 201.33329079 183.44438833 199.28998756 183.45139027 C193.72975771 183.46880798 188.16953645 183.47935463 182.60928607 183.4875958 C179.13487139 183.49274544 175.66045939 183.49882126 172.1860466 183.50510693 C161.31403413 183.52416311 150.44202846 183.53839207 139.5700025 183.5467189 C127.0232704 183.556487 114.47671494 183.58279373 101.93004507 183.62321979 C92.23139323 183.65339582 82.53279197 183.66818928 72.83409411 183.67149991 C67.04227814 183.67384911 61.25065077 183.68279259 55.45888519 183.70796108 C50.00630863 183.73127199 44.55404441 183.73546274 39.10143089 183.7251997 C37.10443456 183.72470493 35.1074227 183.73100788 33.11047363 183.74475574 C19.53216265 183.83297364 8.08556744 183.22050937 -2.21266747 173.25447559 C-10.52415154 163.26561718 -11.66195704 153.39324175 -11.6167202 140.72615528 C-11.6224318 139.2748255 -11.6293991 137.8235002 -11.63751793 136.37218189 C-11.65536904 132.45508316 -11.65429727 128.5382094 -11.64857554 124.62108231 C-11.64547461 121.34542311 -11.65158557 118.06980656 -11.65761429 114.79415345 C-11.67162894 107.06865143 -11.67012138 99.34326009 -11.65871239 91.61775684 C-11.64721006 83.65309181 -11.66134908 75.68876267 -11.68810886 67.72414184 C-11.71025846 60.87465794 -11.71690564 54.02527958 -11.71103245 47.17576241 C-11.70766279 43.08943799 -11.71007952 39.00332932 -11.72728348 34.9170351 C-11.7427409 31.07877941 -11.73881103 27.24102309 -11.71997833 23.40278721 C-11.7162903 21.99550567 -11.71940727 20.58818719 -11.72986412 19.18093967 C-11.74305744 17.25861046 -11.72912863 15.33615234 -11.71387291 13.41383839 C-11.71366363 12.33873383 -11.71345434 11.26362926 -11.71323872 10.15594578 C-11.08619444 6.52139773 -9.74785482 4.88826995 -7.21266747 2.25447559 C-4.12310177 0.19476513 -3.48954035 0.0040519 0 0 Z " fill="#95CBF5" transform="translate(88.21266746520996,352.7455244064331)"/>
<path d="M0 0 C1.28834244 -0.00563965 2.57668488 -0.0112793 3.90406799 -0.01708984 C5.33503779 -0.01320099 6.76600704 -0.00910463 8.19697571 -0.00482178 C9.70166188 -0.00753145 11.20634673 -0.01109226 12.71102905 -0.01544189 C16.80220013 -0.02457487 20.89327054 -0.02101688 24.98444343 -0.01468372 C29.26751463 -0.00962377 33.55057715 -0.0143156 37.83364868 -0.01745605 C45.03224739 -0.02109768 52.2308051 -0.01629352 59.42939758 -0.0067749 C67.74142337 0.00408938 76.0533509 0.00059963 84.36537427 -0.01042771 C91.50521199 -0.01951969 98.64502021 -0.02077591 105.78486186 -0.01555037 C110.04736331 -0.01243851 114.30981867 -0.01199934 118.57231712 -0.01862335 C122.58520129 -0.02442323 126.59795965 -0.02035176 130.61083031 -0.00883484 C132.07973523 -0.00620145 133.54865082 -0.00693064 135.01755142 -0.01136017 C148.0737264 -0.04708483 158.08522453 1.27936745 168.12007141 10.29693604 C177.72849721 20.38756908 178.43081239 30.85356836 178.33247375 44.14312744 C178.33462294 45.83603712 178.33850557 47.52894534 178.34397888 49.22184753 C178.35362402 53.79410795 178.3384305 58.36597433 178.3180728 62.93818712 C178.30042783 67.7350417 178.30402829 72.53188545 178.30479431 77.32876587 C178.30292491 85.38007144 178.28560828 93.43122569 178.258255 101.48248291 C178.22678675 110.77906841 178.21625979 120.07548845 178.21772611 129.37212336 C178.21907892 139.29000388 178.20518868 149.207821 178.1868329 159.12568235 C178.18257904 161.97541897 178.18115176 164.8251453 178.18035507 167.6748848 C178.17834001 172.15818097 178.16608009 176.64133931 178.1460228 181.12458992 C178.14020218 182.76603793 178.13771608 184.40750181 178.13887787 186.04895973 C178.13986637 188.2966088 178.12847975 190.54387758 178.11405945 192.79147339 C178.11070776 194.04687235 178.10735607 195.30227131 178.10390282 196.59571266 C177.39617756 206.65926535 173.45598519 215.17184776 166.09663391 222.12896729 C159.05827242 227.86793896 150.55094415 230.36687749 141.59751892 230.40113831 C140.31332565 230.40829361 139.02913239 230.41544891 137.70602417 230.42282104 C136.28495813 230.42566109 134.86389183 230.42837284 133.44282532 230.43096924 C131.94459883 230.43723644 130.44637389 230.44388347 128.94815063 230.45088196 C124.03151017 230.47188893 119.1148695 230.48227911 114.19819641 230.49224854 C112.50443379 230.49629692 110.81067132 230.50041387 109.11690903 230.50459862 C101.16126735 230.52364049 93.20563492 230.53787534 85.24997485 230.54621059 C76.06910404 230.55598882 66.88847395 230.58232773 57.70768797 230.62271148 C50.60863179 230.65286634 43.50964467 230.66767874 36.41052568 230.6709916 C32.17148485 230.67334221 27.93270149 230.68230435 23.6937294 230.70745277 C19.70620311 230.73072858 15.71910394 230.73496892 11.73152733 230.72469139 C10.2698277 230.72419585 8.80810706 230.73052192 7.34647179 230.74424744 C5.34763159 230.76196455 3.34860593 230.7524755 1.34971619 230.74171448 C0.23216761 230.74410283 -0.88538097 230.74649118 -2.03679466 230.74895191 C-6.52809958 230.03562737 -9.67794447 228.11653187 -12.51165199 224.53927422 C-13.5183505 220.95416508 -13.43479362 217.38222481 -13.42079163 213.6890564 C-13.4275883 212.37945963 -13.4275883 212.37945963 -13.43452227 211.04340637 C-13.4472016 208.1124005 -13.44554362 205.18157961 -13.44389343 202.25054932 C-13.44987646 200.1513444 -13.45668148 198.05214169 -13.46424866 195.95294189 C-13.48193842 190.24633459 -13.48660528 184.53978723 -13.48788023 178.83315516 C-13.48977792 174.07162461 -13.49713393 169.31010807 -13.50422442 164.54858291 C-13.52051715 153.31609316 -13.52539255 142.08363547 -13.52397156 130.85113525 C-13.52276975 119.25858963 -13.54387741 107.66623007 -13.57545888 96.07373154 C-13.60159673 86.12543521 -13.6123399 76.17719974 -13.61106074 66.22886932 C-13.61055039 60.28518441 -13.6162739 54.34166482 -13.63741684 48.39801407 C-13.65675726 42.80835482 -13.65695231 37.21901931 -13.64238358 31.62934875 C-13.6402892 29.5774628 -13.64503364 27.52555681 -13.65710449 25.47370529 C-13.67251383 22.67303638 -13.66327733 19.87348977 -13.64784241 17.07284546 C-13.65812953 16.26038805 -13.66841666 15.44793064 -13.67901552 14.61085331 C-13.61529057 9.38039422 -12.62434815 6.39646158 -9.15336609 2.25396729 C-5.62372323 -0.09912796 -4.18007562 0.00280803 0 0 Z " fill="#9AC5E7" transform="translate(371.1533660888672,89.74603271484375)"/>
<path d="M0 0 C15.86235123 13.79437063 25.51941685 30.6485616 28.125 51.625 C28.48783845 57.84562864 28.3784753 64.086914 28.35205078 70.31518555 C28.35148579 72.18870538 28.35180494 74.06222566 28.35293579 75.93574524 C28.35350688 80.99282315 28.34179219 86.04980515 28.32778788 91.10686088 C28.31523972 96.40260052 28.31410681 101.69834264 28.31173706 106.99409485 C28.30553426 117.00938515 28.28913975 127.02463151 28.26903808 137.03990251 C28.24664164 148.44743137 28.23567625 159.8549624 28.22564721 171.2625078 C28.20477241 194.7167018 28.16811122 218.1708356 28.125 241.625 C6.015 241.625 -16.095 241.625 -38.875 241.625 C-38.875 229.415 -38.875 217.205 -38.875 204.625 C-39.535 204.625 -40.195 204.625 -40.875 204.625 C-41.13023437 205.51445312 -41.38546875 206.40390625 -41.6484375 207.3203125 C-47.01112145 221.76881766 -62.30309847 232.17547006 -75.64379883 238.45239258 C-100.17407813 249.52632944 -130.56637089 249.50798716 -155.875 240.625 C-175.22055138 232.64466906 -189.8508983 220.75778038 -198.875 201.625 C-207.32424958 180.97683386 -207.41203313 155.1592591 -198.875 134.625 C-190.63689424 115.7493402 -174.67265234 104.66083609 -156.109375 97.18359375 C-137.37281837 90.06805957 -117.22307532 87.66816403 -97.4296875 85.40625 C-96.50799271 85.30014404 -95.58629791 85.19403809 -94.63667297 85.0847168 C-90.01664312 84.55481659 -85.39576953 84.0398833 -80.77124023 83.55078125 C-61.65169963 82.06826058 -61.65169963 82.06826058 -45.875 72.625 C-42.220796 66.81149364 -43.13141091 59.0624298 -44.52734375 52.609375 C-46.9593333 45.13596504 -50.5956665 39.16281957 -57.45703125 35.09375 C-72.29368539 27.95555556 -89.25940363 27.53373989 -104.875 32.625 C-118.50864752 38.48746843 -124.93122732 45.77163355 -131.875 58.625 C-139.92251957 58.02303133 -147.80927246 56.91442101 -155.76171875 55.55859375 C-156.94474075 55.36024429 -158.12776276 55.16189484 -159.34663391 54.95753479 C-163.08591404 54.32969615 -166.8242083 53.69619456 -170.5625 53.0625 C-173.113869 52.63308731 -175.66530073 52.20404721 -178.21679688 51.77539062 C-184.43692959 50.72956595 -190.6562652 49.67910342 -196.875 48.625 C-196.58110728 47.2071729 -196.28126536 45.79057833 -195.97900391 44.37451172 C-195.81268463 43.58551483 -195.64636536 42.79651794 -195.4750061 41.98361206 C-194.54389158 38.3234194 -192.98157003 35.09124554 -191.25 31.75 C-190.89518555 31.05874023 -190.54037109 30.36748047 -190.17480469 29.65527344 C-177.37550586 5.31284038 -155.43460241 -10.37704607 -129.4921875 -18.55493164 C-88.48770109 -30.45486716 -34.66405684 -27.33591131 0 0 Z M-48.66117859 122.22181702 C-59.273595 125.80665943 -70.01386033 127.5230933 -81.0625 129.1875 C-109.16513395 132.71713256 -109.16513395 132.71713256 -131.50390625 148.578125 C-136.50525488 156.04452581 -136.79668595 163.77276355 -135.875 172.625 C-134.94996863 175.93613795 -133.6691859 178.70160619 -131.875 181.625 C-131.33875 182.511875 -130.8025 183.39875 -130.25 184.3125 C-121.10746524 193.21444174 -109.56504374 196.20121199 -97.125 196.0625 C-96.16561523 196.05492676 -95.20623047 196.04735352 -94.21777344 196.03955078 C-78.2173854 195.67113849 -65.79630932 189.95600526 -54.13671875 179.046875 C-44.79399664 169.04257844 -41.71982149 156.78159227 -41.77734375 143.37890625 C-41.7787587 142.72292953 -41.78017365 142.06695282 -41.78163147 141.39109802 C-41.78716969 139.32318298 -41.79970998 137.25538158 -41.8125 135.1875 C-41.81752301 133.77409012 -41.8220845 132.36067852 -41.82617188 130.94726562 C-41.83711874 127.50647432 -41.85433962 124.06574828 -41.875 120.625 C-44.34840434 120.625 -46.34178398 121.42796702 -48.66117859 122.22181702 Z " fill="#FFFFFF" transform="translate(2118.875,243.375)"/>
<path d="M0 0 C15.86235123 13.79437063 25.51941685 30.6485616 28.125 51.625 C28.48783845 57.84562864 28.3784753 64.086914 28.35205078 70.31518555 C28.35148579 72.18870538 28.35180494 74.06222566 28.35293579 75.93574524 C28.35350688 80.99282315 28.34179219 86.04980515 28.32778788 91.10686088 C28.31523972 96.40260052 28.31410681 101.69834264 28.31173706 106.99409485 C28.30553426 117.00938515 28.28913975 127.02463151 28.26903808 137.03990251 C28.24664164 148.44743137 28.23567625 159.8549624 28.22564721 171.2625078 C28.20477241 194.7167018 28.16811122 218.1708356 28.125 241.625 C6.015 241.625 -16.095 241.625 -38.875 241.625 C-38.875 229.415 -38.875 217.205 -38.875 204.625 C-39.535 204.625 -40.195 204.625 -40.875 204.625 C-41.13023437 205.51445312 -41.38546875 206.40390625 -41.6484375 207.3203125 C-47.01112145 221.76881766 -62.30309847 232.17547006 -75.64379883 238.45239258 C-100.17407813 249.52632944 -130.56637089 249.50798716 -155.875 240.625 C-175.22055138 232.64466906 -189.8508983 220.75778038 -198.875 201.625 C-207.32424958 180.97683386 -207.41203313 155.1592591 -198.875 134.625 C-190.63689424 115.7493402 -174.67265234 104.66083609 -156.109375 97.18359375 C-137.37281837 90.06805957 -117.22307532 87.66816403 -97.4296875 85.40625 C-96.50799271 85.30014404 -95.58629791 85.19403809 -94.63667297 85.0847168 C-90.01664312 84.55481659 -85.39576953 84.0398833 -80.77124023 83.55078125 C-61.65169963 82.06826058 -61.65169963 82.06826058 -45.875 72.625 C-42.220796 66.81149364 -43.13141091 59.0624298 -44.52734375 52.609375 C-46.9593333 45.13596504 -50.5956665 39.16281957 -57.45703125 35.09375 C-72.29368539 27.95555556 -89.25940363 27.53373989 -104.875 32.625 C-118.50864752 38.48746843 -124.93122732 45.77163355 -131.875 58.625 C-139.92251957 58.02303133 -147.80927246 56.91442101 -155.76171875 55.55859375 C-156.94474075 55.36024429 -158.12776276 55.16189484 -159.34663391 54.95753479 C-163.08591404 54.32969615 -166.8242083 53.69619456 -170.5625 53.0625 C-173.113869 52.63308731 -175.66530073 52.20404721 -178.21679688 51.77539062 C-184.43692959 50.72956595 -190.6562652 49.67910342 -196.875 48.625 C-196.58110728 47.2071729 -196.28126536 45.79057833 -195.97900391 44.37451172 C-195.81268463 43.58551483 -195.64636536 42.79651794 -195.4750061 41.98361206 C-194.54389158 38.3234194 -192.98157003 35.09124554 -191.25 31.75 C-190.89518555 31.05874023 -190.54037109 30.36748047 -190.17480469 29.65527344 C-177.37550586 5.31284038 -155.43460241 -10.37704607 -129.4921875 -18.55493164 C-88.48770109 -30.45486716 -34.66405684 -27.33591131 0 0 Z M-48.66117859 122.22181702 C-59.273595 125.80665943 -70.01386033 127.5230933 -81.0625 129.1875 C-109.16513395 132.71713256 -109.16513395 132.71713256 -131.50390625 148.578125 C-136.50525488 156.04452581 -136.79668595 163.77276355 -135.875 172.625 C-134.94996863 175.93613795 -133.6691859 178.70160619 -131.875 181.625 C-131.33875 182.511875 -130.8025 183.39875 -130.25 184.3125 C-121.10746524 193.21444174 -109.56504374 196.20121199 -97.125 196.0625 C-96.16561523 196.05492676 -95.20623047 196.04735352 -94.21777344 196.03955078 C-78.2173854 195.67113849 -65.79630932 189.95600526 -54.13671875 179.046875 C-44.79399664 169.04257844 -41.71982149 156.78159227 -41.77734375 143.37890625 C-41.7787587 142.72292953 -41.78017365 142.06695282 -41.78163147 141.39109802 C-41.78716969 139.32318298 -41.79970998 137.25538158 -41.8125 135.1875 C-41.81752301 133.77409012 -41.8220845 132.36067852 -41.82617188 130.94726562 C-41.83711874 127.50647432 -41.85433962 124.06574828 -41.875 120.625 C-44.34840434 120.625 -46.34178398 121.42796702 -48.66117859 122.22181702 Z " fill="#FFFFFF" transform="translate(1676.875,243.375)"/>
<path d="M0 0 C25.50483797 23.65909312 37.56573658 59.55016349 38.86181641 93.62744141 C39.56976717 131.07495872 33.01563667 166.97710034 8.75 196.6875 C8.10289062 197.48800781 7.45578125 198.28851563 6.7890625 199.11328125 C-13.74096117 223.37222759 -44.57502504 235.52964424 -75.5625 238.3125 C-112.24543447 240.70581126 -147.95772636 233.11096971 -176.25 208.6875 C-204.44880979 183.72318223 -215.71830579 148.72716014 -218.109375 112.05957031 C-220.28309748 75.39309872 -211.47713906 37.04468407 -187.25 8.6875 C-166.87551659 -13.99570674 -141.26663785 -26.9166208 -111.25 -31.3125 C-110.36957031 -31.44398438 -109.48914062 -31.57546875 -108.58203125 -31.7109375 C-68.96236398 -36.37207483 -29.91801427 -26.71802047 0 0 Z M-129.25 42.6875 C-145.75259861 66.63074394 -148.67748415 98.28174881 -144.0625 126.4375 C-140.67566405 144.59801888 -133.57309604 162.12492181 -118.58203125 173.7578125 C-106.15526389 182.13580234 -93.24660805 183.82505499 -78.61328125 181.41015625 C-70.2443825 179.61196082 -63.69477565 176.28599198 -57.25 170.6875 C-56.58097656 170.11257813 -55.91195312 169.53765625 -55.22265625 168.9453125 C-38.94357505 153.88481895 -34.1895529 130.0036064 -33.25 108.6875 C-33.20875 107.77226562 -33.1675 106.85703125 -33.125 105.9140625 C-32.60392365 82.13995382 -37.38687683 57.20004181 -53.25 38.734375 C-56.32305162 35.58929873 -59.52678715 33.02002663 -63.25 30.6875 C-64.13558594 30.12095703 -64.13558594 30.12095703 -65.0390625 29.54296875 C-86.67285199 17.25313515 -114.0206257 23.99230463 -129.25 42.6875 Z " fill="#FFFFFF" transform="translate(2836.25,251.3125)"/>
<path d="M0 0 C12.46044369 11.33201065 22.80067831 26.11238853 26.09375 42.95507812 C26.09375 43.94507813 26.09375 44.93507813 26.09375 45.95507812 C19.3724885 47.20422996 12.65039372 48.44882299 5.92773438 49.69042969 C3.64662113 50.11226175 1.36569202 50.53509092 -0.91503906 50.95898438 C-25.22024428 55.47493837 -25.22024428 55.47493837 -36.90625 56.95507812 C-37.29449951 56.11605957 -37.68274902 55.27704102 -38.08276367 54.41259766 C-43.66114933 42.50902819 -50.0377369 35.24427906 -62.20703125 29.95507812 C-77.09370718 24.75099646 -94.30454446 26.21421488 -108.53125 32.64257812 C-114.45669647 35.85924906 -117.92335339 39.9892849 -120.90625 45.95507812 C-121.60051491 52.95723568 -121.9572616 59.4520476 -117.55859375 65.25195312 C-104.11207057 79.11172643 -80.45987826 80.47570641 -62.53125 83.95507812 C-20.45561311 92.13670392 -20.45561311 92.13670392 -7.03125 98.76757812 C-6.33128906 99.10668213 -5.63132812 99.44578613 -4.91015625 99.79516602 C1.2646649 102.87618002 6.8148602 106.49488529 12.09375 110.95507812 C12.88136719 111.61894531 13.66898438 112.2828125 14.48046875 112.96679688 C26.65247808 124.14685977 32.32502819 139.07898784 33.296875 155.35742188 C33.59923961 178.16075268 26.63865768 197.30512761 10.65625 213.83007812 C-15.76071758 239.04461821 -53.31378729 246.75307646 -88.8046875 246.13867188 C-122.60577619 244.79894384 -155.46268817 236.58612653 -179.90625 211.95507812 C-190.14064924 200.50410839 -200.17395172 183.77275796 -199.90625 167.95507812 C-187.02320828 165.31124485 -174.12074467 162.86613935 -161.1550293 160.66259766 C-158.41689381 160.19624612 -155.68013581 159.72230196 -152.94335938 159.24804688 C-151.18236888 158.94681391 -149.42130398 158.64601549 -147.66015625 158.34570312 C-146.85187881 158.20513489 -146.04360138 158.06456665 -145.21083069 157.91973877 C-141.39704875 157.27781231 -137.79087758 156.78219059 -133.90625 156.95507812 C-133.638125 157.69371094 -133.37 158.43234375 -133.09375 159.19335938 C-128.50938955 171.06142409 -122.41517894 180.88643312 -110.90625 186.95507812 C-94.12876893 193.88214417 -72.8590063 194.97924568 -55.90625 187.95507812 C-48.71724379 184.08407478 -43.53285729 179.83489999 -40.90625 171.95507812 C-40.1460182 165.23245696 -40.43629108 160.13937809 -44.50390625 154.59570312 C-51.55233306 146.34963277 -62.71021479 143.38703097 -72.96875 141.20507812 C-74.04511719 140.96466797 -75.12148437 140.72425781 -76.23046875 140.4765625 C-82.67030277 139.05059925 -89.12481446 137.69718532 -95.58189392 136.35198975 C-99.27047336 135.58255608 -102.9576525 134.80649282 -106.64498901 134.03112793 C-109.33061779 133.47085639 -112.0187032 132.92387263 -114.70727539 132.37792969 C-123.17964784 130.62713819 -131.47023359 128.64052797 -139.6875 125.91601562 C-140.75623352 125.561745 -140.75623352 125.561745 -141.84655762 125.20031738 C-153.43024194 121.19688524 -163.78194183 115.16195128 -172.90625 106.95507812 C-173.53917969 106.40335938 -174.17210938 105.85164062 -174.82421875 105.28320312 C-187.97504147 93.09038735 -192.91319969 76.4245537 -193.87109375 59.06054688 C-194.31750318 39.56420224 -188.59169097 21.42614445 -175.06933594 7.16308594 C-173.69374853 5.74854056 -172.300449 4.35128317 -170.90625 2.95507812 C-170.24753906 2.28476563 -169.58882812 1.61445313 -168.91015625 0.92382812 C-128.96843286 -36.87049078 -40.93408471 -35.52674266 0 0 Z " fill="#FFFFFF" transform="translate(3367.90625,244.044921875)"/>
<path d="M0 0 C1.21042969 1.10214844 1.21042969 1.10214844 2.4453125 2.2265625 C3.21101563 2.89945313 3.97671875 3.57234375 4.765625 4.265625 C19.72337232 18.18102059 31.08473502 39.81790025 32.4453125 60.2265625 C21.12966018 63.03178518 9.68681979 65.1547267 -1.76855469 67.2980957 C-5.07589311 67.91803737 -8.38169911 68.5457455 -11.6875 69.17382812 C-13.79939084 69.57078272 -15.91136703 69.96728356 -18.0234375 70.36328125 C-19.00679077 70.5507341 -19.99014404 70.73818695 -21.0032959 70.93132019 C-21.92195435 71.10182388 -22.84061279 71.27232758 -23.78710938 71.44799805 C-24.5895105 71.59883347 -25.39191162 71.74966888 -26.21862793 71.90507507 C-28.69158805 72.24540269 -31.06154719 72.2816558 -33.5546875 72.2265625 C-33.90660156 71.19917969 -34.25851563 70.17179687 -34.62109375 69.11328125 C-40.1150265 53.51473978 -46.82296422 40.99595841 -62.14746094 33.5144043 C-67.54122171 31.04572148 -72.66472916 29.72352773 -78.5546875 29.2265625 C-79.2765625 29.15695312 -79.9984375 29.08734375 -80.7421875 29.015625 C-94.00125313 28.38191966 -106.69463175 32.89046292 -116.7421875 41.3515625 C-131.45205055 55.30057057 -137.81975661 77.22477542 -138.67871094 97.09570312 C-139.33933328 123.70002524 -137.60707093 151.89332461 -118.42578125 172.484375 C-108.33946702 181.87580745 -96.13667848 185.57003121 -82.5546875 186.2265625 C-67.95081136 185.49100525 -56.54683399 180.76297787 -46.4296875 170.1640625 C-39.73807416 161.86944429 -35.8740358 151.49829954 -33.5546875 141.2265625 C-25.893249 141.84088989 -18.42105633 143.05818485 -10.87109375 144.4765625 C-9.10511086 144.80382324 -9.10511086 144.80382324 -7.30345154 145.13769531 C-4.83320264 145.59634759 -2.36332252 146.05699016 0.10620117 146.51953125 C3.89478568 147.22880404 7.68458265 147.93129136 11.47460938 148.6328125 C13.88028207 149.08033298 16.28588363 149.52823605 18.69140625 149.9765625 C19.82573593 150.18700195 20.96006561 150.39744141 22.12876892 150.61425781 C23.70169456 150.90961426 23.70169456 150.90961426 25.30639648 151.2109375 C26.2288768 151.38334961 27.15135712 151.55576172 28.10179138 151.73339844 C30.4453125 152.2265625 30.4453125 152.2265625 33.4453125 153.2265625 C28.57507381 180.56825341 15.40557121 204.87607524 -7.5546875 221.2265625 C-24.58198126 232.8870257 -44.06381349 239.95858932 -64.5546875 242.2265625 C-65.52535156 242.33742188 -66.49601562 242.44828125 -67.49609375 242.5625 C-101.3879223 245.90204103 -138.0814396 239.47393745 -165.3046875 217.9140625 C-167.07765243 216.3776701 -168.82709584 214.81380329 -170.5546875 213.2265625 C-171.28099365 212.56382324 -171.28099365 212.56382324 -172.02197266 211.88769531 C-200.99435638 185.15683469 -210.6989845 148.94367285 -212.7421875 110.71875 C-213.53590231 72.71965353 -202.77314842 35.48686509 -176.33886719 7.55908203 C-157.3808011 -11.87899647 -132.45963125 -23.45374573 -105.5546875 -26.7734375 C-104.34619141 -26.93972656 -104.34619141 -26.93972656 -103.11328125 -27.109375 C-67.28269632 -31.25876981 -27.82986625 -24.17460023 0 0 Z " fill="#FFFFFF" transform="translate(3111.5546875,246.7734375)"/>
<path d="M0 0 C24.75 0 49.5 0 75 0 C78.37425688 7.87326606 78.37425688 7.87326606 79.5078125 11.46411133 C79.76732697 12.27965988 80.02684143 13.09520844 80.29421997 13.93547058 C80.56837738 14.8088356 80.84253479 15.68220062 81.125 16.58203125 C81.42421356 17.5241597 81.72342712 18.46628815 82.03170776 19.43696594 C82.6820103 21.4848201 83.33087219 23.53313218 83.97845459 25.58184814 C85.75056762 31.18618073 87.53473855 36.78666253 89.3203125 42.38671875 C89.69664825 43.56717773 90.07298401 44.74763672 90.46072388 45.96386719 C94.45221564 58.45805978 98.54465596 70.91870855 102.64309692 83.37814331 C106.10738177 93.91483172 109.55722248 104.45626613 113 115 C113.42729401 116.3083783 113.42729401 116.3083783 113.86322021 117.64318848 C119.17548316 133.93401826 124.00446287 150.30813871 128.375 166.875 C128.58109894 167.65556763 128.78719788 168.43613525 128.99954224 169.24035645 C131.94108708 180.43602556 134.55762834 191.68540779 137 203 C137.13843826 202.42626144 137.27687653 201.85252289 137.41950989 201.26139832 C143.96498783 174.18103531 150.67045464 147.29030424 159.41259766 120.83056641 C161.22704329 115.32809244 162.99513483 109.8109627 164.76171875 104.29296875 C165.09674911 103.24655212 165.43177948 102.2001355 165.77696228 101.12200928 C166.47489899 98.94173901 167.17274789 96.76144062 167.87051392 94.58111572 C168.93544314 91.25642148 170.00282201 87.93252405 171.07104492 84.60888672 C180.12589274 56.43082309 189.0544268 28.21296164 198 0 C222.75 0 247.5 0 273 0 C271.87507821 6.74953076 271.87507821 6.74953076 270.6875 9.8984375 C270.42142441 10.61227097 270.15534882 11.32610443 269.88121033 12.06156921 C269.59041092 12.82500137 269.29961151 13.58843353 269 14.375 C268.69280533 15.19503006 268.38561066 16.01506012 268.06910706 16.85993958 C267.40182098 18.63934488 266.73205389 20.41782134 266.06008911 22.19546509 C264.97913959 25.05518757 263.90458822 27.91724073 262.83178711 30.7800293 C261.70201708 33.79481046 260.57191283 36.80946037 259.43992615 39.82341003 C255.79719367 49.52413207 252.20046109 59.24157718 248.61376953 68.96313477 C247.55299248 71.83826921 246.49145401 74.71312144 245.4296875 77.58789062 C243.99993057 81.45906145 242.57041601 85.33032161 241.14111328 89.20166016 C237.9499163 97.84452318 234.7555881 106.48622898 231.56149292 115.12802124 C229.79086673 119.91863332 228.02044366 124.70932046 226.25 129.5 C225.54166764 131.41666703 224.83333431 133.33333369 224.125 135.25 C223.774375 136.19875 223.42375 137.1475 223.0625 138.125 C222 141 220.9375 143.875 219.875 146.75 C219.34910782 148.17300415 219.34910782 148.17300415 218.81259155 149.62475586 C218.10395616 151.54223748 217.39531765 153.45971795 216.68667603 155.37719727 C214.92043877 160.15638574 213.1542549 164.93559394 211.38818359 169.71484375 C208.14634525 178.48757082 204.90406179 187.26013235 201.65985107 196.03198242 C200.17154436 200.05623799 198.68354134 204.08060583 197.19555664 208.10498047 C196.50446234 209.97385075 195.81322894 211.8426696 195.12182617 213.71142578 C189.04778322 230.12882649 183.02623035 246.56482633 177 263 C150.27 263 123.54 263 96 263 C87.9668267 242.34326865 87.9668267 242.34326865 85.1171875 234.52734375 C84.78493668 233.62092133 84.45268585 232.7144989 84.11036682 231.78060913 C83.39979055 229.8415371 82.68998836 227.90218125 81.98092651 225.96255493 C80.43116914 221.72348377 78.8772618 217.48593702 77.32365417 213.24827576 C76.49551516 210.98936194 75.6675656 208.73037867 74.83979797 206.47132874 C70.05418882 193.41280389 65.24659825 180.36238895 60.4375 167.3125 C59.77207184 165.50650833 59.77207184 165.50650833 59.09320068 163.66403198 C52.89998206 146.85597704 46.69711107 130.05151199 40.48327637 113.25106812 C36.21269509 101.70462015 31.95074769 90.1550407 27.69921875 78.6015625 C27.24537308 77.36848862 26.7915274 76.13541473 26.32392883 74.86497498 C22.64702984 64.87486453 22.64702984 64.87486453 20.83071899 59.9347229 C14.4757341 42.64993682 14.4757341 42.64993682 8 25.41015625 C7.70773026 24.6388739 7.41546051 23.86759155 7.11433411 23.07293701 C5.8180208 19.6545607 4.51503078 16.23906046 3.19799805 12.82861328 C2.76527588 11.69278809 2.33255371 10.55696289 1.88671875 9.38671875 C1.33310669 7.95138794 1.33310669 7.95138794 0.76831055 6.48706055 C0 4 0 4 0 0 Z " fill="#FFFFFF" transform="translate(1194,222)"/>
<path d="M0 0 C1.72424446 -0.00639748 1.72424446 -0.00639748 3.48332214 -0.01292419 C5.36143837 -0.01224442 5.36143837 -0.01224442 7.27749634 -0.0115509 C8.6166137 -0.01454486 9.95573021 -0.01794793 11.29484558 -0.02172852 C14.92507365 -0.03054849 18.55527813 -0.03290578 22.18551588 -0.0335443 C24.45552407 -0.03425592 26.72552629 -0.03639236 28.99553299 -0.03904152 C36.92041656 -0.04828818 44.84528333 -0.05237724 52.77017212 -0.05158997 C60.14840332 -0.05098929 67.52656138 -0.06154081 74.90477407 -0.07733363 C81.24718582 -0.09042387 87.5895737 -0.09577324 93.93199885 -0.09513456 C97.7165774 -0.09488001 101.50109092 -0.09770707 105.28565598 -0.10831261 C108.84631038 -0.11801865 112.40683791 -0.11805567 115.96749687 -0.11079597 C117.89006543 -0.10925773 119.81263403 -0.11757929 121.73518372 -0.12623596 C134.38113853 -0.08031642 143.1768381 3.04639343 152.24478149 12.13371277 C156.3254632 17.5030308 158.4869864 22.06151045 158.51893616 28.83078003 C158.52891129 29.9675267 158.53888641 31.10427338 158.54916382 32.27546692 C158.54982849 33.51348053 158.55049316 34.75149414 158.55117798 36.02702332 C158.5595015 37.33817612 158.56782501 38.64932892 158.57640076 40.00021362 C158.59831013 43.59139216 158.60714026 47.18248555 158.6122272 50.77372336 C158.61587614 53.02098133 158.62211909 55.26821718 158.62922859 57.51546669 C158.65371437 65.3660085 158.66677231 73.21648435 158.6703186 81.06706238 C158.67394935 88.36699764 158.70381349 95.6665113 158.74572319 102.96631783 C158.78050717 109.24679226 158.79586847 115.52712757 158.79656464 121.80769759 C158.79735495 125.55283923 158.80597848 129.29755151 158.8345623 133.042593 C158.86578184 137.22650352 158.85664479 141.40942109 158.84414673 145.59342957 C158.86639816 147.43526825 158.86639816 147.43526825 158.88909912 149.3143158 C158.80050001 159.75754163 155.54324743 167.66147383 148.24478149 175.13371277 C139.43373633 182.88211932 129.98403085 183.5786288 118.62197876 183.5377655 C117.26743002 183.54347849 115.91288608 183.55044631 114.55834961 183.55856323 C110.90329874 183.57640718 107.2484891 183.57534298 103.59340787 183.56962085 C100.53195712 183.56651632 97.47055187 183.5726354 94.40910763 183.57865959 C87.18201135 183.59267434 79.95503337 183.59116896 72.72793579 183.57975769 C65.29390759 183.56827844 57.86024025 183.58235565 50.42625958 183.60915416 C44.0225521 183.63136686 37.61895743 183.63793608 31.21521419 183.63207775 C27.39979746 183.62872036 23.58461199 183.63104157 19.76922798 183.64832878 C16.17964091 183.66388529 12.59058526 183.65974731 9.00101852 183.64102364 C7.07071333 183.63562786 5.14038376 183.64978526 3.21012878 183.66471863 C-7.84147118 183.57185164 -15.73184675 180.93088416 -23.77865601 173.28215027 C-31.78846509 164.57583605 -33.05453865 156.10751199 -33.04574585 144.58586121 C-33.05246307 143.32333023 -33.0591803 142.06079926 -33.06610107 140.76000977 C-33.08371665 137.30730486 -33.08845464 133.8546992 -33.08973265 130.4019537 C-33.09115763 128.24062262 -33.09543385 126.0793165 -33.10072708 123.91799164 C-33.11921454 116.3656963 -33.12739954 108.8134714 -33.12582397 101.26115417 C-33.12462378 94.24129519 -33.14570528 87.22174427 -33.1773113 80.20196319 C-33.20354037 74.15925848 -33.21418846 68.11665396 -33.21291316 62.07389283 C-33.21240535 58.47191413 -33.21798687 54.87020923 -33.23926926 51.26828766 C-33.26239323 47.24502831 -33.25309047 43.22245037 -33.24105835 39.19914246 C-33.25229736 38.01957474 -33.26353638 36.84000702 -33.27511597 35.62469482 C-33.18913175 24.27493266 -30.02674246 16.54104677 -22.19662476 8.33683777 C-15.49600053 2.29019446 -8.94867265 0.01504798 0 0 Z " fill="#62B7E8" transform="translate(390.7552185058594,352.8662872314453)"/>
<path d="M0 0 C23.43 0 46.86 0 71 0 C71 115.17 71 230.34 71 349 C47.57 349 24.14 349 0 349 C0 233.83 0 118.66 0 0 Z " fill="#FFFFFF" transform="translate(1094,136)"/>
<path d="M0 0 C0.8559375 -0.00773438 1.711875 -0.01546875 2.59375 -0.0234375 C9.62181245 -0.00245821 15.48616121 1.06019353 22.625 2.25 C22.625 23.37 22.625 44.49 22.625 66.25 C18.335 65.59 14.045 64.93 9.625 64.25 C-11.23113246 62.28689624 -30.40977046 63.0952208 -47.3125 77 C-59.01289006 88.33067513 -62.97758024 102.72400892 -63.4803791 118.57136917 C-63.53728408 122.46314538 -63.56428037 126.35448398 -63.58032227 130.24658203 C-63.58992026 131.7357255 -63.59993141 133.22486636 -63.61032104 134.71400452 C-63.63716827 138.72773028 -63.65828602 142.74146757 -63.67832303 146.75523233 C-63.7003083 150.96061159 -63.72763517 155.16595617 -63.75437927 159.37130737 C-63.80413765 167.32183996 -63.84913845 175.27239197 -63.89240164 183.22296226 C-63.95119035 193.97568782 -64.01738584 204.72836767 -64.08315182 215.4810524 C-64.18646258 232.40400405 -64.27992694 249.32699542 -64.375 266.25 C-87.805 266.25 -111.235 266.25 -135.375 266.25 C-135.375 179.46 -135.375 92.67 -135.375 3.25 C-112.605 3.25 -89.835 3.25 -66.375 3.25 C-66.375 18.43 -66.375 33.61 -66.375 49.25 C-65.715 49.25 -65.055 49.25 -64.375 49.25 C-64.23964844 48.67894531 -64.10429688 48.10789062 -63.96484375 47.51953125 C-59.63345628 31.20550298 -49.84259036 17.26561545 -35.1953125 8.7109375 C-23.64647379 2.72857506 -12.99117362 -0.11633887 0 0 Z " fill="#FFFFFF" transform="translate(1887.375,218.75)"/>
</svg>
